' Generated by UML Generator
' Encoded: lLXPSzis47xNh-0aBtHbUPGsxg59FA4kcwqiQIJvI3iT3KJ251mIO07AifkclxqBW1SeIh4VqXTJM7oxMEmDVn09uiac2XlY4w4nuYYol109uIG99wjDWbsFqJdv6rljnfhusF88zqBSQA2LI3Zo4Wst74eY55gV6vRLGW7kM8GcwdT87c2rOYp4Y4hAPpWo8TuNYoFgTwmP_6MHzTwYU9ikx2E9koCuXFsX_CXro3pWOxHZZT9Vajg2FqrzkCqLjnCKvnrRPId7rguCULGJhc73yLgCW4qYadTwTNRKiHuOaHgy3d3IvHZxX0PmY7sKNL9kNA97a-OXgi2ILDo-IOGZBM9INmkSz35IsEmmGZsE8qoJL6n92NKPISji8udPXIIzP20fEj-2EuvsBP3A_j9eQ5Vss8Occ6jVKXI1EUSG33IGQqzkvjvLra_nTXcgp0fQZO4cDSe5IA9YA4pLpAzQkcUJOz3Stb5ENLchbhfsihh7djB6nt6opdNR4h-qKffgmnMmOwi0AOqXiX4lQw49uLwZ0IGEaOTjjhhFL3csEDkcyZqMQka7yGVbWy4qpadiMi6v0GnehKm3sfTsABa1I3VI72KIykz1MPf7aAWNwuBxKSBukunsbieRGWOupvEXSixWlwjXtiDRn7jJ5u7QR323Q0vbIEX8ydG4G-PV8B6-H75E5DTGm7oZVXMHf2JOMQXFMRm9rK5zd20I2hjSUumSC6Exd04wDP0gFJsfQyTIdt98IiYGK2BMs3U4Y6k2LY6kdblIFS1KUWghOtOKh6GQUzJMoGjsTpOOzDtn-T8v7wWGWQhzfcr0BfrRO_UqNIzXEfjqdQuxSXSVEvRFDg0smDidxLzsn05cCPWjv-xlkTWV3D3CwNRTnN8ucVINryxeAeVzzA9smvW_mWyuh9GCzlYj-qehz_x5XWQuN7-Wnb5_29fLgdehW1xI9HoIzHdoLraVAjhLC_jO7WpPsJeYiZAaqwHYiJprQegLtCT_RK3PSW4qEsJ2TAAORMCDYTbZFZRhrOnjJKAFXJkwJq66H-9qEcdc0H4XGct40v6TyyUVEqamGwiLIPwH1wU7qk3j2xFWpUbpik1j9Gl6_GFXhLoZR_FDu_d_3iuvYMJbPRpYf_vWw5oD5il-OBguo1tLhiNSkFszcE7aTjcR3Po5EndlhrpVrnMbhxFzhARap4WEv-YfRAcwILWaECvpxe5WIBFS1DUmL2bwkDgfSCYPT0yhbWSc9BwX8qQ359jssAm32Kt5Djr4Sr1IL6UV332XMExld_T0nLZtKxmx0ngNhVXyS3bTV5ps9gF935ed2o4etklloNPD4co0hyQ_ZIStutfu09wGwFbYC0Nt3ORkRLOe0FDghfpmIYAca-dLA7Dp5LUC1IbQUc-4LhBH_Ag-fSigL45LZhzM3XvcFzEQoohJYhoIw9GccrqlIsvxZKcmJkfzArJz1F_lpX-gXZEUsgYSw_jvZbAq4hrcMwdMHjXvz9f5vmM3Z3d75K5mFdDX0d07Dyjvpnd90ZjqUWlfMPtMFog5EV5lZAU1f5mKPf6anxc7mk8H-sGi_nNm7EvOVG8jMsJzk6ETSnIlYITonxcHUWYhZpauVjKJSfpa-0vpZdtv-9OvK3wl6NCCZtKyXHPc398-HzjBn3_PZwdWfw85rxYl6Ki1FHR5ZChtL-aQfQnBt_RVjLff3IeHyg54FynEJiug93rcIxhcbMDbg_NFMVeV0xKskLA2XgSDkCoHadOmXfIY9p3GCkKiYCLTJ9fPHyr2a_CSsjEvPsuMcdx0rDz4uNy
' URL: http://www.plantuml.com/plantuml/uml/lLXPSzis47xNh-0aBtHbUPGsxg59FA4kcwqiQIJvI3iT3KJ251mIO07AifkclxqBW1SeIh4VqXTJM7oxMEmDVn09uiac2XlY4w4nuYYol109uIG99wjDWbsFqJdv6rljnfhusF88zqBSQA2LI3Zo4Wst74eY55gV6vRLGW7kM8GcwdT87c2rOYp4Y4hAPpWo8TuNYoFgTwmP_6MHzTwYU9ikx2E9koCuXFsX_CXro3pWOxHZZT9Vajg2FqrzkCqLjnCKvnrRPId7rguCULGJhc73yLgCW4qYadTwTNRKiHuOaHgy3d3IvHZxX0PmY7sKNL9kNA97a-OXgi2ILDo-IOGZBM9INmkSz35IsEmmGZsE8qoJL6n92NKPISji8udPXIIzP20fEj-2EuvsBP3A_j9eQ5Vss8Occ6jVKXI1EUSG33IGQqzkvjvLra_nTXcgp0fQZO4cDSe5IA9YA4pLpAzQkcUJOz3Stb5ENLchbhfsihh7djB6nt6opdNR4h-qKffgmnMmOwi0AOqXiX4lQw49uLwZ0IGEaOTjjhhFL3csEDkcyZqMQka7yGVbWy4qpadiMi6v0GnehKm3sfTsABa1I3VI72KIykz1MPf7aAWNwuBxKSBukunsbieRGWOupvEXSixWlwjXtiDRn7jJ5u7QR323Q0vbIEX8ydG4G-PV8B6-H75E5DTGm7oZVXMHf2JOMQXFMRm9rK5zd20I2hjSUumSC6Exd04wDP0gFJsfQyTIdt98IiYGK2BMs3U4Y6k2LY6kdblIFS1KUWghOtOKh6GQUzJMoGjsTpOOzDtn-T8v7wWGWQhzfcr0BfrRO_UqNIzXEfjqdQuxSXSVEvRFDg0smDidxLzsn05cCPWjv-xlkTWV3D3CwNRTnN8ucVINryxeAeVzzA9smvW_mWyuh9GCzlYj-qehz_x5XWQuN7-Wnb5_29fLgdehW1xI9HoIzHdoLraVAjhLC_jO7WpPsJeYiZAaqwHYiJprQegLtCT_RK3PSW4qEsJ2TAAORMCDYTbZFZRhrOnjJKAFXJkwJq66H-9qEcdc0H4XGct40v6TyyUVEqamGwiLIPwH1wU7qk3j2xFWpUbpik1j9Gl6_GFXhLoZR_FDu_d_3iuvYMJbPRpYf_vWw5oD5il-OBguo1tLhiNSkFszcE7aTjcR3Po5EndlhrpVrnMbhxFzhARap4WEv-YfRAcwILWaECvpxe5WIBFS1DUmL2bwkDgfSCYPT0yhbWSc9BwX8qQ359jssAm32Kt5Djr4Sr1IL6UV332XMExld_T0nLZtKxmx0ngNhVXyS3bTV5ps9gF935ed2o4etklloNPD4co0hyQ_ZIStutfu09wGwFbYC0Nt3ORkRLOe0FDghfpmIYAca-dLA7Dp5LUC1IbQUc-4LhBH_Ag-fSigL45LZhzM3XvcFzEQoohJYhoIw9GccrqlIsvxZKcmJkfzArJz1F_lpX-gXZEUsgYSw_jvZbAq4hrcMwdMHjXvz9f5vmM3Z3d75K5mFdDX0d07Dyjvpnd90ZjqUWlfMPtMFog5EV5lZAU1f5mKPf6anxc7mk8H-sGi_nNm7EvOVG8jMsJzk6ETSnIlYITonxcHUWYhZpauVjKJSfpa-0vpZdtv-9OvK3wl6NCCZtKyXHPc398-HzjBn3_PZwdWfw85rxYl6Ki1FHR5ZChtL-aQfQnBt_RVjLff3IeHyg54FynEJiug93rcIxhcbMDbg_NFMVeV0xKskLA2XgSDkCoHadOmXfIY9p3GCkKiYCLTJ9fPHyr2a_CSsjEvPsuMcdx0rDz4uNy
' Generated on: 2025-11-11T11:30:28.093349600

@startuml
skinparam classAttributeIconSize 0
hide circle

abstract class Animal {
  -age: int
  -alive: boolean
  -{static} rand: Random = new Random()
  -field: Field
  -location: Location
  --
  +Animal(randomAge: boolean, field: Field, location: Location)
  +act(newAnimals: List<Animal>): void
  #getBreedingAge(): int
  #getMaxAge(): int
  #canBreed(): boolean
  +isAlive(): boolean
  #setDead(): void
  #incrementAge(): void
  #getField(): Field
  #getLocation(): Location
  #setLocation(newLocation: Location): void
}

class Counter {
  -name: String
  -count: int
  --
  +Counter(name: String)
  +getName(): String
  +getCount(): int
  +increment(): void
  +reset(): void
}

class Field {
  -field: Object
  -depth: int
  -width: int
  --
  +Field(depth: int, width: int)
  +clear(): void
  +clear(location: Location): void
  +place(obj: Object, row: int, col: int): void
  +place(obj: Object, location: Location): void
  +getObjectAt(row: int, col: int): Object
  +getObjectAt(location: Location): Object
  +getDepth(): int
  +getWidth(): int
  +adjacentLocations(location: Location): Iterator<Location>
  +getFreeAdjacentLocations(location: Location): List<Location>
  +freeAdjacentLocation(location: Location): Location
  +randomLocation(): Location
}

class FieldStats {
  -counters: HashMap
  -countsValid: boolean
  --
  +FieldStats()
  +getPopulationDetails(field: Field): String
  +reset(): void
  +incrementCount(animalClass: Class): void
  +countFinished(): void
  +isViable(field: Field): boolean
  -generateCounts(field: Field): void
}

class Fox {
  -{static} BREEDING_AGE: int = 10
  -{static} MAX_AGE: int = 150
  -{static} BREEDING_PROBABILITY: double = 0.09
  -{static} MAX_LITTER_SIZE: int = 3
  -{static} RABBIT_FOOD_VALUE: int = 7
  -{static} rand: Random = new Random()
  -foodLevel: int
  --
  +Fox(randomAge: boolean, field: Field, location: Location)
  +act(newAnimals: List<Animal>): void
  -incrementHunger(): void
  -findFood(): Location
  -giveBirth(newAnimals: List<Animal>): void
  -breed(): int
  #getBreedingAge(): int
  #getMaxAge(): int
}

class Location {
  -row: int
  -col: int
  --
  +Location(row: int, col: int)
  +equals(obj: Object): boolean
  +toString(): String
  +hashCode(): int
  +getRow(): int
  +getCol(): int
}

class Principal {
  +{static} main(args: String[]): void
}

class Rabbit {
  -{static} BREEDING_AGE: int = 5
  -{static} MAX_AGE: int = 40
  -{static} BREEDING_PROBABILITY: double = 0.15
  -{static} MAX_LITTER_SIZE: int = 4
  -{static} RAND: Random = new Random()
  --
  +Rabbit(randomAge: boolean, field: Field, location: Location)
  +act(newAnimals: List<Animal>): void
  -giveBirth(newAnimals: List<Animal>): void
  -breed(): int
  #getBreedingAge(): int
  #getMaxAge(): int
}

class Simulator {
  -{static} DEFAULT_DEPTH: int = 50
  -{static} DEFAULT_WIDTH: int = 50
  -{static} FOX_CREATION_PROBABILITY: double = 0.02
  -{static} RABBIT_CREATION_PROBABILITY: double = 0.08
  -animals: ArrayList<Animal>
  -field: Field
  -step: int
  -view: SimulatorView
  -rand: Random = new Random()
  --
  +Simulator()
  +Simulator(depth: int, width: int)
  +runLongSimulation(): void
  +simulate(numSteps: int): void
  +simulateOneStep(): void
  +reset(): void
  -populate(): void
}

class SimulatorView {
  -{static} EMPTY_COLOR: Color = Color.white
  -{static} UNKNOWN_COLOR: Color = Color.gray
  -STEP_PREFIX: String = "Step: "
  -POPULATION_PREFIX: String = "Population: "
  -stepLabel: JLabel
  -population: JLabel
  -fieldView: FieldView
  -colors: HashMap
  -stats: FieldStats
  --
  +SimulatorView(height: int, width: int)
  +setColor(animalClass: Class, color: Color): void
  -getColor(animalClass: Class): Color
  +showStatus(step: int, field: Field): void
  +isViable(field: Field): boolean
}

class FieldView {
  -GRID_VIEW_SCALING_FACTOR: int = 6
  -gridWidth: int
  -gridHeight: int
  -xScale: int
  -yScale: int
  ~size: Dimension
  -g: Graphics
  -fieldImage: Image
  --
  +FieldView(height: int, width: int)
  +getPreferredSize(): Dimension
  +preparePaint(): void
  +drawMark(x: int, y: int, color: Color): void
  +paintComponent(g: Graphics): void
}

Animal *-- Field
Animal *-- Location
Field ..> Location
FieldStats ..> Field
Fox --|> Animal
Fox ..> Location
Fox ..> Field
Rabbit --|> Animal
Rabbit ..> Field
Rabbit ..> Location
Simulator o-- Animal
Simulator *-- Field
Simulator *-- SimulatorView
SimulatorView *-- FieldView
SimulatorView *-- FieldStats
SimulatorView ..> Field
@enduml